<mxfile host="app.diagrams.net" agent="Mozilla/5.0 (Macintosh; Intel Mac OS X 10_15_7) AppleWebKit/537.36 (KHTML, like Gecko) Chrome/128.0.0.0 Safari/537.36" version="24.7.7">
  <diagram name="第 1 页" id="OntkouKlZa8e4wjtS1Qv">
    <mxGraphModel dx="1678" dy="552" grid="1" gridSize="10" guides="1" tooltips="1" connect="1" arrows="1" fold="1" page="1" pageScale="1" pageWidth="827" pageHeight="1169" math="0" shadow="0">
      <root>
        <mxCell id="0" />
        <mxCell id="1" parent="0" />
        <mxCell id="1vRdgGj5pQEQPz-nfKS2-17" value="&lt;b&gt;&lt;font style=&quot;font-size: 15px;&quot;&gt;物理机器&lt;/font&gt;&lt;/b&gt;" style="rounded=0;whiteSpace=wrap;html=1;fillColor=none;align=left;verticalAlign=top;" vertex="1" parent="1">
          <mxGeometry x="30" y="130" width="250" height="370" as="geometry" />
        </mxCell>
        <mxCell id="1vRdgGj5pQEQPz-nfKS2-1" value="server" style="rounded=0;whiteSpace=wrap;html=1;" vertex="1" parent="1">
          <mxGeometry x="370" y="300" width="120" height="60" as="geometry" />
        </mxCell>
        <mxCell id="1vRdgGj5pQEQPz-nfKS2-6" style="rounded=0;orthogonalLoop=1;jettySize=auto;html=1;exitX=1;exitY=0.5;exitDx=0;exitDy=0;" edge="1" parent="1" source="1vRdgGj5pQEQPz-nfKS2-2">
          <mxGeometry relative="1" as="geometry">
            <mxPoint x="370" y="330" as="targetPoint" />
          </mxGeometry>
        </mxCell>
        <mxCell id="1vRdgGj5pQEQPz-nfKS2-8" value="传入平台id" style="edgeLabel;html=1;align=center;verticalAlign=middle;resizable=0;points=[];" vertex="1" connectable="0" parent="1vRdgGj5pQEQPz-nfKS2-6">
          <mxGeometry x="-0.3365" relative="1" as="geometry">
            <mxPoint as="offset" />
          </mxGeometry>
        </mxCell>
        <mxCell id="1vRdgGj5pQEQPz-nfKS2-2" value="client1（容器）" style="rounded=0;whiteSpace=wrap;html=1;" vertex="1" parent="1">
          <mxGeometry x="90" y="210" width="120" height="60" as="geometry" />
        </mxCell>
        <mxCell id="1vRdgGj5pQEQPz-nfKS2-5" value="传入平台id" style="edgeStyle=orthogonalEdgeStyle;rounded=0;orthogonalLoop=1;jettySize=auto;html=1;exitX=1;exitY=0.5;exitDx=0;exitDy=0;entryX=0;entryY=0.5;entryDx=0;entryDy=0;" edge="1" parent="1" source="1vRdgGj5pQEQPz-nfKS2-3" target="1vRdgGj5pQEQPz-nfKS2-1">
          <mxGeometry relative="1" as="geometry" />
        </mxCell>
        <mxCell id="1vRdgGj5pQEQPz-nfKS2-3" value="client2（容器）" style="rounded=0;whiteSpace=wrap;html=1;" vertex="1" parent="1">
          <mxGeometry x="90" y="300" width="120" height="60" as="geometry" />
        </mxCell>
        <mxCell id="1vRdgGj5pQEQPz-nfKS2-7" style="rounded=0;orthogonalLoop=1;jettySize=auto;html=1;exitX=1;exitY=0.5;exitDx=0;exitDy=0;entryX=0;entryY=0.5;entryDx=0;entryDy=0;" edge="1" parent="1" source="1vRdgGj5pQEQPz-nfKS2-4" target="1vRdgGj5pQEQPz-nfKS2-1">
          <mxGeometry relative="1" as="geometry" />
        </mxCell>
        <mxCell id="1vRdgGj5pQEQPz-nfKS2-9" value="传入平台id" style="edgeLabel;html=1;align=center;verticalAlign=middle;resizable=0;points=[];" vertex="1" connectable="0" parent="1vRdgGj5pQEQPz-nfKS2-7">
          <mxGeometry x="-0.1875" y="-4" relative="1" as="geometry">
            <mxPoint as="offset" />
          </mxGeometry>
        </mxCell>
        <mxCell id="1vRdgGj5pQEQPz-nfKS2-4" value="client3（容器）" style="rounded=0;whiteSpace=wrap;html=1;" vertex="1" parent="1">
          <mxGeometry x="90" y="390" width="120" height="60" as="geometry" />
        </mxCell>
        <mxCell id="1vRdgGj5pQEQPz-nfKS2-11" style="rounded=0;orthogonalLoop=1;jettySize=auto;html=1;exitX=1;exitY=0.5;exitDx=0;exitDy=0;entryX=0;entryY=0.5;entryDx=0;entryDy=0;" edge="1" parent="1" source="1vRdgGj5pQEQPz-nfKS2-10" target="1vRdgGj5pQEQPz-nfKS2-2">
          <mxGeometry relative="1" as="geometry" />
        </mxCell>
        <mxCell id="1vRdgGj5pQEQPz-nfKS2-12" value="80端口" style="edgeLabel;html=1;align=center;verticalAlign=middle;resizable=0;points=[];" vertex="1" connectable="0" parent="1vRdgGj5pQEQPz-nfKS2-11">
          <mxGeometry x="-0.0259" y="1" relative="1" as="geometry">
            <mxPoint as="offset" />
          </mxGeometry>
        </mxCell>
        <mxCell id="1vRdgGj5pQEQPz-nfKS2-10" value="cdn(域名1)" style="rounded=0;whiteSpace=wrap;html=1;" vertex="1" parent="1">
          <mxGeometry x="-190" y="210" width="120" height="60" as="geometry" />
        </mxCell>
        <mxCell id="1vRdgGj5pQEQPz-nfKS2-20" style="edgeStyle=orthogonalEdgeStyle;rounded=0;orthogonalLoop=1;jettySize=auto;html=1;exitX=0.5;exitY=0.5;exitDx=0;exitDy=0;exitPerimeter=0;entryX=0;entryY=0.5;entryDx=0;entryDy=0;" edge="1" parent="1" source="1vRdgGj5pQEQPz-nfKS2-19" target="1vRdgGj5pQEQPz-nfKS2-10">
          <mxGeometry relative="1" as="geometry" />
        </mxCell>
        <mxCell id="1vRdgGj5pQEQPz-nfKS2-19" value="Actor" style="shape=umlActor;verticalLabelPosition=bottom;verticalAlign=top;html=1;outlineConnect=0;" vertex="1" parent="1">
          <mxGeometry x="-300" y="210" width="30" height="60" as="geometry" />
        </mxCell>
        <mxCell id="1vRdgGj5pQEQPz-nfKS2-27" style="edgeStyle=orthogonalEdgeStyle;rounded=0;orthogonalLoop=1;jettySize=auto;html=1;exitX=1;exitY=0.5;exitDx=0;exitDy=0;entryX=0;entryY=0.5;entryDx=0;entryDy=0;" edge="1" parent="1" source="1vRdgGj5pQEQPz-nfKS2-21" target="1vRdgGj5pQEQPz-nfKS2-3">
          <mxGeometry relative="1" as="geometry" />
        </mxCell>
        <mxCell id="1vRdgGj5pQEQPz-nfKS2-29" value="8080" style="edgeLabel;html=1;align=center;verticalAlign=middle;resizable=0;points=[];" vertex="1" connectable="0" parent="1vRdgGj5pQEQPz-nfKS2-27">
          <mxGeometry x="-0.2091" y="-1" relative="1" as="geometry">
            <mxPoint as="offset" />
          </mxGeometry>
        </mxCell>
        <mxCell id="1vRdgGj5pQEQPz-nfKS2-21" value="cdn(域名2)" style="rounded=0;whiteSpace=wrap;html=1;" vertex="1" parent="1">
          <mxGeometry x="-190" y="300" width="120" height="60" as="geometry" />
        </mxCell>
        <mxCell id="1vRdgGj5pQEQPz-nfKS2-22" style="edgeStyle=orthogonalEdgeStyle;rounded=0;orthogonalLoop=1;jettySize=auto;html=1;exitX=0.5;exitY=0.5;exitDx=0;exitDy=0;exitPerimeter=0;entryX=0;entryY=0.5;entryDx=0;entryDy=0;" edge="1" parent="1" source="1vRdgGj5pQEQPz-nfKS2-23" target="1vRdgGj5pQEQPz-nfKS2-21">
          <mxGeometry relative="1" as="geometry" />
        </mxCell>
        <mxCell id="1vRdgGj5pQEQPz-nfKS2-23" value="Actor" style="shape=umlActor;verticalLabelPosition=bottom;verticalAlign=top;html=1;outlineConnect=0;" vertex="1" parent="1">
          <mxGeometry x="-300" y="300" width="30" height="60" as="geometry" />
        </mxCell>
        <mxCell id="1vRdgGj5pQEQPz-nfKS2-28" style="edgeStyle=orthogonalEdgeStyle;rounded=0;orthogonalLoop=1;jettySize=auto;html=1;exitX=1;exitY=0.5;exitDx=0;exitDy=0;entryX=0;entryY=0.5;entryDx=0;entryDy=0;" edge="1" parent="1" source="1vRdgGj5pQEQPz-nfKS2-24" target="1vRdgGj5pQEQPz-nfKS2-4">
          <mxGeometry relative="1" as="geometry" />
        </mxCell>
        <mxCell id="1vRdgGj5pQEQPz-nfKS2-30" value="8081" style="edgeLabel;html=1;align=center;verticalAlign=middle;resizable=0;points=[];" vertex="1" connectable="0" parent="1vRdgGj5pQEQPz-nfKS2-28">
          <mxGeometry x="-0.2091" y="-2" relative="1" as="geometry">
            <mxPoint as="offset" />
          </mxGeometry>
        </mxCell>
        <mxCell id="1vRdgGj5pQEQPz-nfKS2-24" value="cdn(域名3)" style="rounded=0;whiteSpace=wrap;html=1;" vertex="1" parent="1">
          <mxGeometry x="-190" y="390" width="120" height="60" as="geometry" />
        </mxCell>
        <mxCell id="1vRdgGj5pQEQPz-nfKS2-25" style="edgeStyle=orthogonalEdgeStyle;rounded=0;orthogonalLoop=1;jettySize=auto;html=1;exitX=0.5;exitY=0.5;exitDx=0;exitDy=0;exitPerimeter=0;entryX=0;entryY=0.5;entryDx=0;entryDy=0;" edge="1" parent="1" source="1vRdgGj5pQEQPz-nfKS2-26" target="1vRdgGj5pQEQPz-nfKS2-24">
          <mxGeometry relative="1" as="geometry" />
        </mxCell>
        <mxCell id="1vRdgGj5pQEQPz-nfKS2-26" value="Actor" style="shape=umlActor;verticalLabelPosition=bottom;verticalAlign=top;html=1;outlineConnect=0;" vertex="1" parent="1">
          <mxGeometry x="-300" y="390" width="30" height="60" as="geometry" />
        </mxCell>
      </root>
    </mxGraphModel>
  </diagram>
</mxfile>
